<?xml version="1.0" encoding="UTF-8" standalone="no"?>
<!DOCTYPE svg PUBLIC "-//W3C//DTD SVG 1.1//EN" "http://www.w3.org/Graphics/SVG/1.1/DTD/svg11.dtd">
<svg width="100%" height="100%" viewBox="0 0 5000 5000" version="1.1" xmlns="http://www.w3.org/2000/svg" xmlns:xlink="http://www.w3.org/1999/xlink" xml:space="preserve" xmlns:serif="http://www.serif.com/" style="fill-rule:evenodd;clip-rule:evenodd;stroke-linejoin:round;stroke-miterlimit:2;">
    <g transform="matrix(7.79824,0,0,7.79824,-1489.87,-525.625)">
        <path d="M568.549,175.661C570.29,173.037 577.792,182.022 577.792,182.022C577.792,182.022 574.12,196.78 568.549,213.658C565.61,222.564 564.237,233.846 560.204,236.686C548.338,245.04 519.441,255.002 519.441,255.002C519.165,254.577 518.992,259.029 519.41,264C516.55,263.9 512.614,264.104 508.8,264C508.96,259.78 509.03,253.71 508.72,249.5C507.51,222.56 507.605,191.451 507.345,164.451C509.559,159.932 517.597,160.869 520.058,163.957C520.088,182.537 520.08,205.42 519.41,224C519.04,230.8 519.341,235.902 519.441,242.722C528.931,240.341 551.731,229.354 551.731,229.354C551.731,229.354 563.831,182.773 568.549,175.661Z" style="fill:rgb(14,86,155);fill-rule:nonzero;"/>
    </g>
    <g transform="matrix(7.79824,0,0,7.79824,-1489.87,-525.625)">
        <path d="M384.449,196.19C382.003,194.523 387.192,182.722 388.919,184.03C393.169,187.25 397.199,190.77 401.209,194.28C405.729,198.09 410.409,201.71 414.869,205.59C418.999,202.74 423.389,200.52 427.799,198.15C431.238,196.302 436.44,194.297 441.599,194.63C448.511,195.076 448.055,195.051 452.95,198.07C458.022,201.198 462.33,206.68 467.23,210.77C475.67,218.78 482.896,225.47 492.209,235.144C494.144,237.155 496.718,241.81 497.371,245.412C498.231,250.159 497.565,257.523 497.371,263.628C494.921,263.618 490.258,263.638 487.808,263.628C487.744,257.32 487.948,252.679 487.808,248.699C487.808,245.959 474.66,234.33 469.75,230.26C459.67,221.94 452.417,213.01 445.779,208.657C442.683,206.627 439.242,205.699 434.719,207.627C430.379,209.477 426.559,211.98 422.509,214.44C419.709,216.12 416.219,219.21 412.779,218.68C410.279,218.53 408.269,216.21 406.639,214.55C399.949,207.57 392.419,201.62 384.449,196.19Z" style="fill:rgb(14,86,155);fill-rule:nonzero;"/>
    </g>
    <g transform="matrix(1.51778,0,0,1.51778,-707.123,363.532)">
        <path d="M2075.95,2458.97C2082.76,2463.21 2092.82,2469.11 2102.15,2474.46C2113.54,2481 2131.25,2488.11 2153.74,2487.43C2179.27,2486.66 2197.67,2472.22 2203.34,2469.07C2222.68,2458.32 2254.58,2431.83 2262.35,2426.62C2277.54,2416.44 2312.8,2395.91 2331.05,2406.45C2337.74,2410.31 2339.9,2412.53 2344.72,2422.6C2350.12,2433.88 2352.5,2444.12 2352.5,2444.12C2358.95,2435.87 2364.95,2430.93 2368.41,2416.51C2370.54,2407.64 2375.36,2395.02 2373.69,2378.33C2372.78,2369.23 2373.16,2360.13 2370.82,2344.45C2363.33,2294.2 2348.25,2266.08 2348.25,2266.08C2348.25,2266.08 2366.33,2266.1 2376.39,2271.95C2388.68,2279.09 2395.52,2285.03 2404.43,2296.28C2410.48,2303.91 2420.93,2318.39 2426.58,2330.55C2431.71,2341.6 2432.45,2347.5 2434.95,2354.74C2435.83,2357.3 2439.33,2378.82 2438.21,2394.03C2436.99,2410.6 2435.08,2424.3 2431.56,2434.34C2425.98,2450.27 2421.06,2460.53 2412.91,2469.07C2402.38,2480.11 2385.04,2505.43 2352.5,2506.39C2336.18,2506.88 2323.33,2498.19 2300.13,2494.56C2281.83,2491.7 2256.15,2517.48 2247.99,2522.78C2227.51,2536.07 2202.95,2552.24 2158.42,2556.51C2133.64,2558.89 2094.52,2548.15 2059,2530.48C2053.67,2527.83 2028.05,2507.36 1978.12,2506.39C1962.77,2506.1 1927.39,2517.1 1918.33,2516.61C1887.33,2514.92 1869.69,2492.75 1857.94,2474.46C1846.69,2456.96 1841.37,2437.65 1837.75,2415.39C1835.85,2403.7 1833.04,2371.31 1846.19,2340.45C1847.76,2336.77 1868.13,2287.09 1903.02,2270.3C1917.19,2263.48 1927.11,2262.79 1927.11,2262.79C1926.79,2263.76 1900.67,2354.34 1900.92,2370.85C1901.39,2401.76 1915.46,2440.52 1923.17,2444.12C1923.37,2443.93 1928.02,2430.98 1931.05,2423.97C1936.71,2410.89 1944.25,2406.32 1949.42,2404.79C1975.54,2397.07 2020.28,2421.74 2046.41,2439.26C2059.38,2447.96 2070.97,2455.87 2075.95,2458.97Z" style="fill:rgb(14,86,155);"/>
    </g>
    <g transform="matrix(2.20485,0,0,2.20485,563.988,994.715)">
        <g transform="matrix(1.5972,0,0,1.5972,-348.161,11.4923)">
            <circle cx="357.036" cy="357.762" r="37.711" style="fill:rgb(14,86,155);"/>
        </g>
        <g transform="matrix(2.25254,0,0,2.25254,-641.375,-280.561)">
            <circle cx="383.333" cy="383.333" r="16.667" style="fill:rgb(61,177,241);"/>
        </g>
        <g transform="matrix(2.25254,0,0,2.25254,-641.375,-280.561)">
            <circle cx="383.333" cy="383.333" r="16.667" style="fill:rgb(61,177,241);"/>
        </g>
        <g transform="matrix(2.25254,0,0,2.25254,-641.375,-280.561)">
            <circle cx="383.333" cy="383.333" r="16.667" style="fill:rgb(61,177,241);"/>
        </g>
    </g>
    <g transform="matrix(2.20485,0,0,2.20485,812.307,423.459)">
        <g transform="matrix(1.5972,0,0,1.5972,-280.902,-143.237)">
            <circle cx="357.036" cy="357.762" r="37.711" style="fill:rgb(14,86,155);"/>
        </g>
        <g transform="matrix(2.25254,0,0,2.25254,-574.116,-435.291)">
            <circle cx="383.333" cy="383.333" r="16.667" style="fill:rgb(61,177,241);"/>
        </g>
    </g>
    <g transform="matrix(2.20485,0,0,2.20485,788.872,118.123)">
        <g transform="matrix(1.5972,0,0,1.5972,-266.038,-219.527)">
            <circle cx="357.036" cy="357.762" r="37.711" style="fill:rgb(14,86,155);"/>
        </g>
        <g transform="matrix(2.25254,0,0,2.25254,-559.252,-511.58)">
            <circle cx="383.333" cy="383.333" r="16.667" style="fill:rgb(61,177,241);"/>
        </g>
    </g>
    <g transform="matrix(2.20485,0,0,2.20485,1127.57,188.43)">
        <g transform="matrix(1.5972,0,0,1.5972,-198.33,-199.931)">
            <circle cx="357.036" cy="357.762" r="37.711" style="fill:rgb(14,86,155);"/>
        </g>
        <g transform="matrix(2.25254,0,0,2.25254,-491.544,-491.984)">
            <circle cx="383.333" cy="383.333" r="16.667" style="fill:rgb(61,177,241);"/>
        </g>
    </g>
    <g transform="matrix(2.20485,0,0,2.20485,574.383,624.404)">
        <g transform="matrix(1.5972,0,0,1.5972,-345.346,-88.8097)">
            <circle cx="357.036" cy="357.762" r="37.711" style="fill:rgb(14,86,155);"/>
        </g>
        <g transform="matrix(2.25254,0,0,2.25254,-638.56,-380.863)">
            <circle cx="383.333" cy="383.333" r="16.667" style="fill:rgb(61,177,241);"/>
        </g>
    </g>
    <g transform="matrix(3.5216,0,0,3.5216,2018.05,92.7334)">
        <g>
            <circle cx="357.036" cy="357.762" r="37.711" style="fill:rgb(14,86,155);"/>
        </g>
    </g>
    <g transform="matrix(2.20485,0,0,2.20485,1479.11,0.944174)">
        <g transform="matrix(1.5972,0,0,1.5972,-99.3038,-284.842)">
            <circle cx="357.036" cy="357.762" r="37.711" style="fill:rgb(14,86,155);"/>
        </g>
        <g transform="matrix(2.25254,0,0,2.25254,-392.518,-576.895)">
            <circle cx="383.333" cy="383.333" r="16.667" style="fill:rgb(61,177,241);"/>
        </g>
    </g>
    <g transform="matrix(2.20485,0,0,2.20485,1987.24,-12.3442)">
        <g transform="matrix(1.5972,0,0,1.5972,-97.6474,-213.918)">
            <circle cx="357.036" cy="357.762" r="37.711" style="fill:rgb(14,86,155);"/>
        </g>
        <g transform="matrix(2.25254,0,0,2.25254,-390.861,-505.971)">
            <circle cx="383.333" cy="383.333" r="16.667" style="fill:rgb(61,177,241);"/>
        </g>
    </g>
    <g transform="matrix(2.20485,0,0,2.20485,2153.53,198.602)">
        <g transform="matrix(1.5972,0,0,1.5972,71.1196,-187.656)">
            <circle cx="357.036" cy="357.762" r="37.711" style="fill:rgb(14,86,155);"/>
        </g>
        <g transform="matrix(2.25254,0,0,2.25254,-222.094,-479.709)">
            <circle cx="383.333" cy="383.333" r="16.667" style="fill:rgb(61,177,241);"/>
        </g>
        <g transform="matrix(1.5972,0,0,1.5972,235.662,-10.5916)">
            <circle cx="357.036" cy="357.762" r="37.711" style="fill:rgb(14,86,155);"/>
        </g>
        <g transform="matrix(2.25254,0,0,2.25254,-57.5515,-302.645)">
            <circle cx="383.333" cy="383.333" r="16.667" style="fill:rgb(61,177,241);"/>
        </g>
        <g transform="matrix(1.5972,0,0,1.5972,175.611,327.117)">
            <circle cx="357.036" cy="357.762" r="37.711" style="fill:rgb(14,86,155);"/>
        </g>
        <g transform="matrix(2.25254,0,0,2.25254,-117.603,35.0637)">
            <circle cx="383.333" cy="383.333" r="16.667" style="fill:rgb(61,177,241);"/>
        </g>
    </g>
    <g transform="matrix(7.79824,0,0,7.79824,-1487.72,-534.028)">
        <path d="M634.02,205.91C637.558,208.138 640.048,211.97 641.98,215.07C640.547,216.303 637.72,218.3 635.88,219.87C630.58,225.13 623.453,228.79 619.51,235.12C615.248,241.962 612.661,250.545 611.15,259.55C609.525,269.237 609.64,280.961 610.31,290.58C618.79,290.85 641.98,290.58 641.98,290.58C641.98,290.58 649.769,285.349 655.43,280.97C662.872,275.213 672.13,264.13 681.09,256.45C685.071,260.627 686.741,262.558 688.22,265.16C679.97,272.14 673.398,279.606 664.504,287.547C656.478,294.713 645.784,302.02 645.784,302.02C645.784,302.02 619.23,302.5 611.01,302.02C610.94,315.68 611.4,329.35 611.15,343C618.73,342.91 626.44,343.23 633.98,342.61C645.09,341.69 655.78,342.1 666.97,341.97C667.199,346.183 667.682,348.87 666.552,353.737C665.719,353.681 627.7,354.03 610.02,354C598.51,364.83 587.54,376.23 576.09,387.11C571.03,391.71 566.22,396.59 561.16,401.18C557.83,403.95 554.87,407.05 551.92,410.21C552.3,412.76 552.78,415.29 553.16,417.85C568.39,415.37 583.25,411.41 598.02,407C607.73,403.84 617.44,400.86 627.35,398.41C640.36,395.09 654.52,391.18 668.01,392.01C677.71,392.52 687.299,394.605 695.11,399.84C700.063,403.16 705.855,409.405 709.387,413.915C715.658,421.918 716.917,428.094 719.682,439.219C713.846,433.434 698.581,424.576 695.11,423C684.241,418.066 672.748,417.041 661.387,417.423C651.802,417.746 640.723,421.166 630.459,423C635.53,423.633 640.434,424.355 644.604,425.655C649.534,427.185 654.551,429.102 659.207,431.333C666.645,434.898 674.805,442.66 679.7,445.591C682.398,447.206 687.561,448.917 685.509,451.334C683.386,453.834 675.019,454.763 668.01,460.616C661.958,465.67 653.002,473.584 647.33,477.28C643.224,479.956 639.486,481.605 634.544,482.977C629.319,484.427 622.871,485.671 616.544,485.52C609.564,485.353 599.84,482.65 592.25,479.75C583.33,476.38 575.19,471.69 566.24,468.36C568.13,474.74 569.6,481.41 572.81,487.26C574.87,491.16 577.55,494.59 579.85,498.33C572.7,496.13 568.03,491.14 563.33,485.63C557.49,478.3 553.01,469.81 549.25,461.26C547.72,466.68 546.96,472.37 547,478C547.05,489.09 546.8,499.92 547.66,511C548.12,516.68 548.05,522.3 548.02,528C547.47,537.59 546.23,546.66 540.08,554.43C539.85,541.96 537.77,529.48 537.96,516.99C537.88,511.64 536.93,506.37 536.98,501C537.03,495.62 535.86,490.38 535.97,485C536.03,476 535.89,466.99 536.04,458C536.69,450.66 537.34,443.18 539.04,436.01C540.01,431.63 541.33,427.57 540.98,423C540.56,416.74 540.17,410.57 540.95,404.31C545.18,400.72 549.1,396.97 552.84,392.86C568.09,376.96 583.8,361.5 600,346.56C599.93,317.56 598.24,279.02 599.99,259.55C600.933,249.056 604.856,238.637 610.5,229.74C616.172,220.8 626,213.54 634.02,205.91Z" style="fill:rgb(14,86,155);fill-rule:nonzero;"/>
    </g>
    <g transform="matrix(7.79824,0,0,7.79824,-1489.87,-525.625)">
        <path d="M386,256.02C382.82,258.53 390.28,239.44 391.55,243.28C401.06,249.11 410.83,254.63 420.14,260.81C423.24,262.95 426.29,265.9 426.09,269.98C426.38,282.32 426.41,294.67 427,307C427.03,319.53 426.97,332.06 427.04,344.59C436.7,351.63 445.62,359.61 455.18,366.79C466.16,375.89 477.75,384.17 488.48,393.57C490.18,395.09 492.91,396.47 493.15,398.95C494.05,403.17 494.04,407.67 494.21,411.98C494.33,416.91 494.6,421.86 492.66,426.51C491.9,428.74 490.66,430.58 491.14,432.99C492.64,440.67 494.04,448.16 494.15,456.03C495.26,473.97 494.92,492.03 494.63,510C493.96,519.91 494.25,531.17 491.4,540.73C488.5,521.93 485.35,502.85 484.77,483.83C483.76,473.71 482.11,463.86 477.37,454.74C474.54,464.85 470.46,475.5 463.6,483.6C457.22,491.31 448.68,496.12 439.26,499.22C441.77,495.53 445.59,492.95 448.37,489.43C454.24,483.27 457.8,475.67 460.11,467.55C454.12,469.45 448.55,472.06 443.06,475.11C429.55,482.03 415.51,487.88 400,487.05C391.62,486.9 383.27,483.21 376.4,478.58C371.3,475.15 343.208,461.996 334.743,459.639C332.227,458.938 328.501,458.906 327.93,457.84C327.359,456.774 329.92,454.56 331.32,453.24C346.01,442.68 366.699,429.649 379.01,427.02C393.184,423.994 402.575,425.4 406.999,423.882L407.049,423.202C394.149,421.232 376.913,416.709 362.793,417.51C348.84,418.301 335.715,419.295 322.327,428.006C314.777,432.917 303.317,440.686 303.317,440.686C303.317,440.686 317.792,412.486 327.93,404.863C341.318,394.795 348.39,392.06 361,391.04C368.61,391 376.49,390.49 384,391.75C399.64,394.13 415.01,397.78 430.02,402.77C441.89,406.77 453.88,410.36 465.76,414.33C469.94,415.74 474.22,416.75 478.56,417.51C480.97,412.62 480.82,407.71 481.57,402.47C478.46,398.69 474.55,396.23 470.74,393.27C453.19,379.71 435.15,366.92 417.37,353.68C414.17,351.43 414.86,348.44 414.75,345C415.03,336.68 415,328.35 415,320.02C400.5,320.11 386,319.96 371.5,320.01C366.39,325.41 360.95,330.48 355.91,335.96C350.27,341.86 344.93,348.01 339.09,353.72C338.084,354.704 329.973,347.666 331.63,345.92C341.18,335.86 350.42,325.51 360.11,315.57C352.17,310.04 344.22,304.08 336.82,297.86C336.904,296.317 341.457,286.307 342.32,287.07C350.46,294.27 359.12,300.99 367.47,307.92C383.32,308.27 399.12,309.27 414.99,309C414.95,296.96 415.02,284.92 415,272.88C405.35,267.28 395.93,261.08 386,256.02Z" style="fill:rgb(14,86,155);fill-rule:nonzero;"/>
    </g>
    <g transform="matrix(7.79824,0,0,7.79824,-1489.87,-525.625)">
        <path d="M471.99,274.71C483.42,273.64 495.06,276.11 504.43,282.93C502.19,286.88 499.76,290.7 497.41,294.58C492.61,292.88 488.05,291.06 482.97,290.3C478.11,289.74 473.49,289.6 469.14,292.17C464.39,294.81 462.22,299.63 460.58,304.57C458.02,313.09 458.42,322.79 462.05,330.95C464.23,335.96 468.77,340.49 474.2,341.72C479.98,342.7 485.55,341.68 491.02,339.77C491.09,334.18 490.3,328.66 490.23,323.07C486.14,323.02 482.04,323 477.95,323.01C477.45,319.02 477.24,315.02 477.11,311C486.72,311.2 496.48,310.56 506.05,311.53C506.14,323.54 505.76,335.7 507.08,347.65C498.38,354.72 486.01,357.46 475,357.09C468.23,357.37 461.3,354.92 455.64,351.32C449.98,347.73 446.38,342.32 443.71,336.3C440.02,327.28 439.27,317.66 440.32,308.03C441.4,300.57 443.57,293.36 448.29,287.35C453.94,280.07 462.85,275.47 471.99,274.71Z" style="fill:rgb(61,177,241);fill-rule:nonzero;stroke:rgb(14,86,155);stroke-width:7.2px;"/>
    </g>
    <g transform="matrix(7.79824,0,0,7.79824,-1489.87,-525.625)">
        <path d="M553,274.96C563.37,274.44 573.64,277.18 582.46,282.64C580.54,287.07 577.44,290.85 575.12,295.11C569.33,291.87 562.61,290.26 556,290C550.26,289.93 544.7,291.17 541.16,296.08C535.7,303.67 535.65,314.06 536.16,323C537.02,329.76 539.72,337.45 546.13,340.82C552.37,344.67 560.72,342.04 567.16,339.93C566.9,334.35 566.99,328.76 566.89,323.18C562.56,323.57 558.38,323.57 554.04,323.14C553.91,319.09 553.87,315.04 553.9,310.98C563.61,310.97 573.31,311 583.02,310.99C583.17,323.35 582.79,335.82 583.74,348.14C578.91,352.52 573.16,354.21 567.01,355.88C557.11,358.44 546.15,358.32 536.63,354.37C528.36,350.9 522.5,343.74 519.62,335.37C516.6,327.03 516.67,318.73 517.13,309.99C518.43,300.39 521.17,291.3 528.47,284.52C535.14,278.1 543.95,275.51 553,274.96Z" style="fill:rgb(61,177,241);fill-rule:nonzero;stroke:rgb(14,86,155);stroke-width:7.2px;"/>
    </g>
    <g transform="matrix(7.79824,0,0,7.79824,-1489.87,-525.625)">
        <path d="M412.978,438.305C422.465,439.02 446.787,447.254 453.568,450.683C456.008,451.917 461.54,454.429 453.668,458.883C449.024,461.511 427.048,472.388 418.738,474.583C410.429,476.779 400.266,476.483 391.776,474.583C383.972,472.837 378.876,469.159 368.51,464.071C362.486,461.114 350.025,457.746 353.112,453.712C356.198,449.679 376.965,441.814 387.027,439.87C396.265,438.085 401.629,437.449 412.978,438.305Z" style="fill:white;fill-rule:nonzero;"/>
    </g>
    <g transform="matrix(-7.78938,0.371713,0.371713,7.78938,6312.3,-706.26)">
        <path d="M412.978,438.305C422.465,439.02 448.639,447.44 453.254,450.735C455.479,452.324 461.54,454.429 453.668,458.883C449.024,461.511 429.594,472.439 419.279,475.056C410.391,477.31 400.042,476.646 391.776,474.583C383.66,472.557 378.649,469.956 369.684,462.677C362.152,456.562 356.091,455.106 361.3,450.996C365.11,447.99 378.472,441.856 387.027,439.87C396.192,437.743 401.629,437.449 412.978,438.305Z" style="fill:white;fill-rule:nonzero;"/>
    </g>
    <g transform="matrix(4.96651,0,0,4.96651,1371.56,-551.199)">
        <circle cx="383.333" cy="383.333" r="16.667" style="fill:rgb(61,177,241);"/>
    </g>
    <g transform="matrix(5.4703,0,0,5.4703,-283.238,1081.3)">
        <circle cx="357.036" cy="357.762" r="37.711" style="fill:rgb(14,86,155);"/>
    </g>
    <g transform="matrix(7.71476,0,0,7.71476,-1287.47,81.0421)">
        <circle cx="383.333" cy="383.333" r="16.667" style="fill:rgb(61,177,241);"/>
    </g>
    <g transform="matrix(5.4703,0,0,5.4703,1350.87,1050.02)">
        <circle cx="357.036" cy="357.762" r="37.711" style="fill:rgb(14,86,155);"/>
    </g>
    <g transform="matrix(7.71476,0,0,7.71476,346.639,49.7581)">
        <circle cx="383.333" cy="383.333" r="16.667" style="fill:rgb(61,177,241);"/>
    </g>
</svg>
